<svg xmlns="http://www.w3.org/2000/svg" preserveAspectRatio="xMidYMid" width="100" height="100" viewBox="0 0 100 100">
<path fill="#3b5998" fill-rule="evenodd" d="M94.484-.001L5.513-.001C2.464-.001-.001 2.467-.001 5.516L-.001 94.484C-.001 97.532 2.464 100.001 5.513 100.001L53.997 100.001L53.997 61.004L40.018 61.004L40.018 46.994L54 46.994L54 34.531C54 21.614 61.801 14.001 73.325 14.001C78.844 14.001 83.612 14.593 84.995 14.777 L84.995 28.980 L75.457 28.978C69.190 28.978 68.019 32.086 68.019 36.456L68.019 46.994L84.074 46.994L81.807 61.004L68.019 61.004L68.019 100.001L94.484 100.001C97.532 100.001 100 97.532 100 94.484L100 5.516C100 2.467 97.532-.001 94.484-.001Z"/>
</svg>